<svg width="213" height="253" viewBox="0 0 213 253" fill="none" xmlns="http://www.w3.org/2000/svg">
<g id="Component 1">
<g id="Pencil" filter="url(#filter0_f)">
<mask id="path-1-outside-1" maskUnits="userSpaceOnUse" x="-1.1281" y="-1.42903" width="217.15" height="257.003" fill="black">
<rect fill="white" x="-1.1281" y="-1.42903" width="217.15" height="257.003"/>
<path d="M46.7574 103.628L104.446 183.542C113.671 180.687 119.752 181.851 132.199 188.986L62.7431 92.7707L46.7574 103.628Z"/>
<path d="M162.651 144.011L104.962 64.0965L88.9762 74.9537L158.432 171.169C155.777 157.383 156.729 151.443 162.651 144.011Z"/>
<path d="M132.199 188.986C137.339 175.008 142.437 171.567 158.432 171.169L88.9762 74.9537L62.7431 92.7707L132.199 188.986Z"/>
<path d="M158.432 171.169C142.437 171.567 137.339 175.008 132.199 188.986C119.752 181.851 113.671 180.687 104.446 183.542L148.477 214.074C156.853 203.92 163.324 199.305 177.17 194.586L162.651 144.011C156.729 151.443 155.777 157.383 158.432 171.169Z"/>
<path d="M177.17 194.586C163.324 199.305 156.853 203.92 148.477 214.074C148.477 214.074 179.922 234.785 183.611 232.28C187.3 229.774 177.17 194.586 177.17 194.586Z"/>
<path d="M99.2217 56.1448L41.0172 95.6763L46.7574 103.628L62.7431 92.7707L88.9762 74.9537L104.962 64.0965L99.2217 56.1448Z"/>
<path d="M93.7686 48.5908L35.564 88.1222L41.0172 95.6763L99.2217 56.1448L93.7686 48.5908Z"/>
<path d="M88.0284 40.6391L29.8239 80.1706L35.564 88.1222L93.7686 48.5908L88.0284 40.6391Z"/>
<path d="M82.0012 32.2899L23.7967 71.8213L29.8239 80.1706L88.0284 40.6391L82.0012 32.2899Z"/>
<path d="M50.0642 8.35734L11.5344 34.5261C6.10135 38.2161 4.78096 45.4795 8.58522 50.7494L23.7967 71.8213L82.0012 32.2899L66.7898 11.218C62.9855 5.94806 55.4972 4.66731 50.0642 8.35734Z"/>
</mask>
<path d="M46.7574 103.628L104.446 183.542C113.671 180.687 119.752 181.851 132.199 188.986L62.7431 92.7707L46.7574 103.628Z" fill="url(#paint0_linear)" style="mix-blend-mode:saturation"/>
<path d="M46.7574 103.628L104.446 183.542C113.671 180.687 119.752 181.851 132.199 188.986L62.7431 92.7707L46.7574 103.628Z" fill="url(#paint1_linear)"/>
<path d="M46.7574 103.628L104.446 183.542C113.671 180.687 119.752 181.851 132.199 188.986L62.7431 92.7707L46.7574 103.628Z" fill="url(#paint2_linear)"/>
<path d="M162.651 144.011L104.962 64.0965L88.9762 74.9537L158.432 171.169C155.777 157.383 156.729 151.443 162.651 144.011Z" fill="url(#paint3_linear)" style="mix-blend-mode:saturation"/>
<path d="M162.651 144.011L104.962 64.0965L88.9762 74.9537L158.432 171.169C155.777 157.383 156.729 151.443 162.651 144.011Z" fill="url(#paint4_linear)"/>
<path d="M162.651 144.011L104.962 64.0965L88.9762 74.9537L158.432 171.169C155.777 157.383 156.729 151.443 162.651 144.011Z" fill="url(#paint5_linear)"/>
<path d="M132.199 188.986C137.339 175.008 142.437 171.567 158.432 171.169L88.9762 74.9537L62.7431 92.7707L132.199 188.986Z" fill="url(#paint6_linear)" style="mix-blend-mode:saturation"/>
<path d="M132.199 188.986C137.339 175.008 142.437 171.567 158.432 171.169L88.9762 74.9537L62.7431 92.7707L132.199 188.986Z" fill="url(#paint7_linear)"/>
<path d="M132.199 188.986C137.339 175.008 142.437 171.567 158.432 171.169L88.9762 74.9537L62.7431 92.7707L132.199 188.986Z" fill="url(#paint8_linear)"/>
<path d="M158.432 171.169C142.437 171.567 137.339 175.008 132.199 188.986C119.752 181.851 113.671 180.687 104.446 183.542L148.477 214.074C156.853 203.92 163.324 199.305 177.17 194.586L162.651 144.011C156.729 151.443 155.777 157.383 158.432 171.169Z" fill="url(#paint9_linear)" style="mix-blend-mode:saturation"/>
<path d="M158.432 171.169C142.437 171.567 137.339 175.008 132.199 188.986C119.752 181.851 113.671 180.687 104.446 183.542L148.477 214.074C156.853 203.92 163.324 199.305 177.17 194.586L162.651 144.011C156.729 151.443 155.777 157.383 158.432 171.169Z" fill="url(#paint10_linear)"/>
<path d="M158.432 171.169C142.437 171.567 137.339 175.008 132.199 188.986C119.752 181.851 113.671 180.687 104.446 183.542L148.477 214.074C156.853 203.92 163.324 199.305 177.17 194.586L162.651 144.011C156.729 151.443 155.777 157.383 158.432 171.169Z" fill="url(#paint11_linear)"/>
<path d="M177.17 194.586C163.324 199.305 156.853 203.92 148.477 214.074C148.477 214.074 179.922 234.785 183.611 232.28C187.3 229.774 177.17 194.586 177.17 194.586Z" fill="url(#paint12_linear)" style="mix-blend-mode:saturation"/>
<path d="M177.17 194.586C163.324 199.305 156.853 203.92 148.477 214.074C148.477 214.074 179.922 234.785 183.611 232.28C187.3 229.774 177.17 194.586 177.17 194.586Z" fill="url(#paint13_linear)"/>
<path d="M177.17 194.586C163.324 199.305 156.853 203.92 148.477 214.074C148.477 214.074 179.922 234.785 183.611 232.28C187.3 229.774 177.17 194.586 177.17 194.586Z" fill="url(#paint14_linear)"/>
<path d="M99.2217 56.1448L41.0172 95.6763L46.7574 103.628L62.7431 92.7707L88.9762 74.9537L104.962 64.0965L99.2217 56.1448Z" fill="url(#paint15_linear)" style="mix-blend-mode:saturation"/>
<path d="M99.2217 56.1448L41.0172 95.6763L46.7574 103.628L62.7431 92.7707L88.9762 74.9537L104.962 64.0965L99.2217 56.1448Z" fill="url(#paint16_linear)"/>
<path d="M99.2217 56.1448L41.0172 95.6763L46.7574 103.628L62.7431 92.7707L88.9762 74.9537L104.962 64.0965L99.2217 56.1448Z" fill="url(#paint17_linear)"/>
<path d="M93.7686 48.5908L35.564 88.1222L41.0172 95.6763L99.2217 56.1448L93.7686 48.5908Z" fill="url(#paint18_linear)" style="mix-blend-mode:saturation"/>
<path d="M93.7686 48.5908L35.564 88.1222L41.0172 95.6763L99.2217 56.1448L93.7686 48.5908Z" fill="url(#paint19_linear)"/>
<path d="M93.7686 48.5908L35.564 88.1222L41.0172 95.6763L99.2217 56.1448L93.7686 48.5908Z" fill="url(#paint20_linear)"/>
<path d="M88.0284 40.6391L29.8239 80.1706L35.564 88.1222L93.7686 48.5908L88.0284 40.6391Z" fill="url(#paint21_linear)" style="mix-blend-mode:saturation"/>
<path d="M88.0284 40.6391L29.8239 80.1706L35.564 88.1222L93.7686 48.5908L88.0284 40.6391Z" fill="url(#paint22_linear)"/>
<path d="M88.0284 40.6391L29.8239 80.1706L35.564 88.1222L93.7686 48.5908L88.0284 40.6391Z" fill="url(#paint23_linear)"/>
<path d="M82.0012 32.2899L23.7967 71.8213L29.8239 80.1706L88.0284 40.6391L82.0012 32.2899Z" fill="url(#paint24_linear)" style="mix-blend-mode:saturation"/>
<path d="M82.0012 32.2899L23.7967 71.8213L29.8239 80.1706L88.0284 40.6391L82.0012 32.2899Z" fill="url(#paint25_linear)"/>
<path d="M82.0012 32.2899L23.7967 71.8213L29.8239 80.1706L88.0284 40.6391L82.0012 32.2899Z" fill="url(#paint26_linear)"/>
<path d="M50.0642 8.35734L11.5344 34.5261C6.10135 38.2161 4.78096 45.4795 8.58522 50.7494L23.7967 71.8213L82.0012 32.2899L66.7898 11.218C62.9855 5.94806 55.4972 4.66731 50.0642 8.35734Z" fill="url(#paint27_linear)" style="mix-blend-mode:saturation"/>
<path d="M50.0642 8.35734L11.5344 34.5261C6.10135 38.2161 4.78096 45.4795 8.58522 50.7494L23.7967 71.8213L82.0012 32.2899L66.7898 11.218C62.9855 5.94806 55.4972 4.66731 50.0642 8.35734Z" fill="url(#paint28_linear)"/>
<path d="M50.0642 8.35734L11.5344 34.5261C6.10135 38.2161 4.78096 45.4795 8.58522 50.7494L23.7967 71.8213L82.0012 32.2899L66.7898 11.218C62.9855 5.94806 55.4972 4.66731 50.0642 8.35734Z" fill="url(#paint29_linear)"/>
<path d="M82.5865 33.1007C83.0434 32.7904 83.1517 32.1758 82.8285 31.728C82.5052 31.2802 81.8728 31.1687 81.4159 31.479L82.5865 33.1007ZM23.2114 71.0105C22.7545 71.3208 22.6462 71.9354 22.9694 72.3832C23.2927 72.831 23.9251 72.9424 24.382 72.6321L23.2114 71.0105ZM88.6137 41.4499C89.0706 41.1396 89.1789 40.525 88.8556 40.0772C88.5324 39.6294 87.9 39.518 87.4431 39.8283L88.6137 41.4499ZM29.2386 79.3597C28.7817 79.67 28.6734 80.2846 28.9966 80.7324C29.3199 81.1802 29.9523 81.2917 30.4092 80.9814L29.2386 79.3597ZM94.3539 49.4016C94.8108 49.0913 94.9191 48.4767 94.5958 48.0289C94.2726 47.5811 93.6401 47.4696 93.1833 47.7799L94.3539 49.4016ZM34.9787 87.3114C34.5219 87.6217 34.4135 88.2363 34.7368 88.6841C35.0601 89.1319 35.6925 89.2433 36.1494 88.933L34.9787 87.3114ZM99.8071 56.9556C100.264 56.6453 100.372 56.0308 100.049 55.583C99.7257 55.1352 99.0933 55.0237 98.6364 55.334L99.8071 56.9556ZM40.4319 94.8655C39.975 95.1758 39.8667 95.7903 40.19 96.2381C40.5132 96.6859 41.1457 96.7974 41.6025 96.4871L40.4319 94.8655ZM105.547 64.9073C106.004 64.597 106.112 63.9824 105.789 63.5346C105.466 63.0868 104.833 62.9754 104.377 63.2857L105.547 64.9073ZM46.1721 102.817C45.7152 103.127 45.6069 103.742 45.9302 104.19C46.2534 104.638 46.8858 104.749 47.3427 104.439L46.1721 102.817ZM132.199 188.986L131.691 189.835C131.952 189.984 132.266 190.013 132.548 189.915C132.831 189.817 133.053 189.601 133.154 189.326L132.199 188.986ZM158.432 171.169L158.468 172.155C158.763 172.148 159.039 172.015 159.224 171.793C159.408 171.57 159.483 171.279 159.428 170.996L158.432 171.169ZM104.131 182.602C103.599 182.766 103.309 183.321 103.483 183.84C103.658 184.359 104.23 184.647 104.762 184.482L104.131 182.602ZM163.454 144.62C163.795 144.192 163.712 143.571 163.269 143.235C162.825 142.898 162.189 142.973 161.848 143.401L163.454 144.62ZM147.685 213.451C147.336 213.874 147.408 214.495 147.846 214.839C148.283 215.183 148.921 215.118 149.27 214.696L147.685 213.451ZM177.513 195.518C178.039 195.338 178.313 194.776 178.123 194.261C177.933 193.747 177.353 193.475 176.826 193.655L177.513 195.518ZM24.382 72.6321L82.5865 33.1007L81.4159 31.479L23.2114 71.0105L24.382 72.6321ZM30.4092 80.9814L88.6137 41.4499L87.4431 39.8283L29.2386 79.3597L30.4092 80.9814ZM36.1494 88.933L94.3539 49.4016L93.1833 47.7799L34.9787 87.3114L36.1494 88.933ZM41.6025 96.4871L99.8071 56.9556L98.6364 55.334L40.4319 94.8655L41.6025 96.4871ZM133.154 189.326C135.709 182.378 138.181 178.272 141.83 175.796C145.489 173.313 150.502 172.353 158.468 172.155L158.396 170.183C150.368 170.382 144.834 171.342 140.66 174.174C136.476 177.013 133.83 181.616 131.245 188.645L133.154 189.326ZM63.3285 93.5815L89.5615 75.7645L88.3909 74.1429L62.1578 91.9599L63.3285 93.5815ZM61.9159 93.3326L131.372 189.548L133.027 188.424L63.5704 92.2089L61.9159 93.3326ZM132.707 188.137C126.459 184.555 121.707 182.41 117.305 181.55C112.861 180.683 108.856 181.139 104.131 182.602L104.762 184.482C109.262 183.09 112.909 182.701 116.925 183.485C120.981 184.277 125.493 186.281 131.691 189.835L132.707 188.137ZM62.1578 91.9599L46.1721 102.817L47.3427 104.439L63.3285 93.5815L62.1578 91.9599ZM88.1489 75.5156L157.605 171.731L159.26 170.607L89.8034 74.3919L88.1489 75.5156ZM159.428 170.996C158.106 164.131 157.707 159.333 158.327 155.365C158.941 151.437 160.565 148.245 163.454 144.62L161.848 143.401C158.815 147.208 157.002 150.703 156.323 155.05C155.651 159.356 156.103 164.421 157.436 171.341L159.428 170.996ZM89.5615 75.7645L105.547 64.9073L104.377 63.2857L88.3909 74.1429L89.5615 75.7645ZM176.826 193.655C169.854 196.031 164.681 198.4 160.183 201.483C155.683 204.568 151.905 208.335 147.685 213.451L149.27 214.696C153.425 209.658 157.07 206.041 161.361 203.1C165.654 200.158 170.639 197.86 177.513 195.518L176.826 193.655ZM104.446 183.542L102.792 184.666C102.926 184.851 103.091 185.014 103.281 185.145L104.446 183.542ZM162.651 144.011L164.602 143.497C164.54 143.279 164.439 143.073 164.305 142.887L162.651 144.011ZM148.477 214.074L147.312 215.677C147.325 215.686 147.339 215.695 147.353 215.704L148.477 214.074ZM177.17 194.586L175.218 195.1L175.218 195.101L177.17 194.586ZM12.705 36.1477L51.2348 9.97896L48.8935 6.73572L10.3638 32.9044L12.705 36.1477ZM65.1353 12.3416L80.3467 33.4135L83.6557 31.1662L68.4442 10.0943L65.1353 12.3416ZM25.4512 70.6976L10.2397 49.6257L6.93074 51.8731L22.1422 72.945L25.4512 70.6976ZM51.2348 9.97896C55.7704 6.89846 61.989 7.98324 65.1353 12.3416L68.4442 10.0943C63.982 3.91287 55.224 2.43617 48.8935 6.73572L51.2348 9.97896ZM10.3638 32.9044C4.03329 37.204 2.46849 45.6917 6.93074 51.8731L10.2397 49.6257C7.09344 45.2673 8.16942 39.2282 12.705 36.1477L10.3638 32.9044ZM80.3467 33.4135L86.3739 41.7628L89.6829 39.5154L83.6557 31.1662L80.3467 33.4135ZM31.4784 79.0469L25.4512 70.6976L22.1422 72.945L28.1694 81.2942L31.4784 79.0469ZM86.3739 41.7628L92.1141 49.7144L95.4231 47.4671L89.6829 39.5154L86.3739 41.7628ZM37.2185 86.9985L31.4784 79.0469L28.1694 81.2942L33.9096 89.2459L37.2185 86.9985ZM92.1141 49.7144L97.5673 57.2685L100.876 55.0211L95.4231 47.4671L92.1141 49.7144ZM42.6717 94.5526L37.2185 86.9985L33.9096 89.2459L39.3627 96.8L42.6717 94.5526ZM97.5673 57.2685L103.307 65.2202L106.616 62.9728L100.876 55.0211L97.5673 57.2685ZM48.4119 102.504L42.6717 94.5526L39.3627 96.8L45.1029 104.752L48.4119 102.504ZM45.1029 104.752L102.792 184.666L106.101 182.418L48.4119 102.504L45.1029 104.752ZM103.307 65.2202L160.996 145.134L164.305 142.887L106.616 62.9728L103.307 65.2202ZM103.281 185.145L147.312 215.677L149.642 212.47L105.611 181.939L103.281 185.145ZM160.699 144.524L175.218 195.1L179.121 194.072L164.602 143.497L160.699 144.524ZM148.477 214.074C147.353 215.704 147.353 215.704 147.353 215.704C147.353 215.705 147.354 215.705 147.354 215.705C147.356 215.706 147.357 215.707 147.359 215.708C147.363 215.711 147.369 215.715 147.377 215.72C147.393 215.73 147.416 215.746 147.446 215.765C147.507 215.805 147.596 215.864 147.713 215.94C147.946 216.093 148.288 216.316 148.724 216.598C149.596 217.163 150.845 217.966 152.355 218.921C155.372 220.831 159.44 223.356 163.63 225.805C167.808 228.247 172.154 230.643 175.716 232.275C177.487 233.088 179.141 233.747 180.52 234.118C181.206 234.303 181.905 234.439 182.561 234.46C183.175 234.48 184.033 234.41 184.781 233.901L182.44 230.658C182.728 230.463 182.907 230.525 182.656 230.516C182.446 230.51 182.091 230.458 181.565 230.316C180.518 230.034 179.109 229.486 177.414 228.709C174.042 227.163 169.836 224.85 165.691 222.427C161.559 220.012 157.535 217.515 154.541 215.62C153.045 214.673 151.809 213.877 150.947 213.319C150.516 213.04 150.178 212.82 149.949 212.671C149.835 212.596 149.747 212.539 149.689 212.5C149.66 212.481 149.638 212.467 149.623 212.457C149.616 212.452 149.61 212.449 149.607 212.446C149.605 212.445 149.604 212.444 149.603 212.444C149.602 212.443 149.602 212.443 149.602 212.443C149.602 212.443 149.602 212.443 148.477 214.074ZM184.781 233.901C185.535 233.389 185.893 232.628 186.079 232.055C186.277 231.448 186.373 230.765 186.416 230.081C186.503 228.708 186.395 226.994 186.174 225.127C185.731 221.372 184.792 216.659 183.752 212.085C182.709 207.498 181.552 202.996 180.656 199.644C180.208 197.967 179.825 196.576 179.553 195.603C179.417 195.117 179.31 194.735 179.236 194.474C179.199 194.344 179.17 194.243 179.151 194.176C179.141 194.142 179.134 194.116 179.129 194.098C179.126 194.09 179.124 194.083 179.123 194.078C179.122 194.076 179.122 194.074 179.121 194.073C179.121 194.073 179.121 194.072 179.121 194.072C179.121 194.071 179.121 194.071 177.17 194.586C175.218 195.101 175.218 195.101 175.218 195.101C175.218 195.102 175.219 195.102 175.219 195.102C175.219 195.103 175.219 195.105 175.22 195.107C175.221 195.111 175.223 195.117 175.225 195.125C175.23 195.141 175.237 195.166 175.246 195.199C175.265 195.264 175.293 195.362 175.329 195.49C175.402 195.746 175.508 196.122 175.642 196.603C175.91 197.564 176.29 198.941 176.734 200.603C177.622 203.927 178.766 208.379 179.795 212.902C180.826 217.438 181.729 221.992 182.147 225.539C182.358 227.324 182.436 228.77 182.37 229.8C182.338 230.319 182.273 230.649 182.213 230.832C182.143 231.05 182.147 230.857 182.44 230.658L184.781 233.901Z" fill="black" mask="url(#path-1-outside-1)"/>
</g>
<g id="Pencil (Stroke)">
<path fill-rule="evenodd" clip-rule="evenodd" d="M8.17522 51.0278C4.21245 45.5384 5.58786 37.9723 11.2473 34.1285L49.777 7.95978C55.4365 4.116 63.2368 5.45011 67.1995 10.9396L163.11 143.8L177.651 194.456L177.65 194.456C177.651 194.456 177.651 194.456 177.651 194.456L177.653 194.462L177.681 194.558C177.7 194.624 177.728 194.724 177.765 194.853C177.838 195.112 177.945 195.492 178.08 195.976C178.351 196.945 178.732 198.331 179.179 200.002C180.072 203.343 181.225 207.826 182.262 212.389C183.299 216.949 184.224 221.601 184.658 225.278C184.874 227.114 184.971 228.727 184.893 229.971C184.853 230.592 184.769 231.142 184.624 231.59C184.481 232.028 184.259 232.432 183.898 232.677C183.537 232.922 183.069 232.989 182.591 232.973C182.103 232.958 181.534 232.853 180.908 232.685C179.654 232.347 178.094 231.73 176.351 230.931C172.861 229.331 168.567 226.967 164.402 224.532C160.234 222.096 156.183 219.581 153.174 217.677C151.67 216.725 150.426 215.925 149.558 215.362C149.123 215.081 148.783 214.86 148.551 214.708C148.436 214.632 148.347 214.574 148.287 214.535L148.196 214.475C148.196 214.475 148.196 214.475 148.477 214.074L148.196 214.475L148.186 214.468L104.085 183.889L8.17522 51.0278ZM148.383 213.412L105.561 183.718C109.689 182.543 113.186 182.246 117.016 182.993C121.16 183.803 125.733 185.843 131.945 189.404L132.467 189.703L132.67 189.149C135.233 182.18 137.749 177.949 141.532 175.383C145.319 172.813 150.462 171.853 158.445 171.654L159.032 171.639L158.924 171.08C157.599 164.2 157.187 159.334 157.82 155.28C158.405 151.533 159.889 148.448 162.44 145.087L176.562 194.28C169.838 196.597 164.835 198.912 160.483 201.895C156.14 204.872 152.468 208.498 148.383 213.412ZM176.83 195.217C170.19 197.509 165.298 199.784 161.061 202.688C156.836 205.584 153.24 209.121 149.208 213.966C149.433 214.113 149.737 214.312 150.113 214.555C150.979 215.116 152.22 215.914 153.721 216.864C156.724 218.765 160.765 221.272 164.919 223.701C169.076 226.131 173.335 228.475 176.779 230.053C178.503 230.844 180.004 231.434 181.176 231.749C181.763 231.907 182.247 231.991 182.625 232.003C183.013 232.016 183.223 231.951 183.324 231.882C183.423 231.815 183.555 231.65 183.669 231.298C183.78 230.955 183.857 230.492 183.894 229.911C183.967 228.751 183.878 227.204 183.663 225.388C183.235 221.763 182.319 217.149 181.285 212.598C180.251 208.051 179.101 203.58 178.21 200.245C177.765 198.578 177.384 197.196 177.114 196.23C176.997 195.81 176.901 195.469 176.83 195.217ZM162.03 143.998C159.169 147.648 157.476 151.001 156.83 155.135C156.242 158.9 156.528 163.283 157.541 169.088L89.673 75.0729L104.839 64.7725L162.03 143.998ZM104.265 63.9773L99.0987 56.8208L41.714 95.7955L46.8802 102.952L104.265 63.9773ZM47.4542 103.747L104.646 182.972C109.161 181.613 112.988 181.217 117.213 182.042C121.062 182.793 125.211 184.553 130.488 187.462L62.6201 93.4467L47.4542 103.747ZM63.4399 92.8899L132.057 187.942C134.529 181.436 137.08 177.219 140.958 174.587C144.845 171.95 149.986 170.961 157.491 170.711L88.8532 75.6297L63.4399 92.8899ZM41.14 95.0003L98.5247 56.0257L93.6456 49.2667L36.2608 88.2414L41.14 95.0003ZM35.6868 87.4463L93.0716 48.4716L87.9054 41.3151L30.5207 80.2898L35.6868 87.4463ZM29.9466 79.4946L87.3314 40.5199L81.8782 32.9658L24.4935 71.9405L29.9466 79.4946ZM23.9195 71.1454L81.3042 32.1707L66.3797 11.4964C62.734 6.44605 55.5577 5.21867 50.3511 8.75494L11.8213 34.9237C6.61463 38.4599 5.34926 45.4207 8.995 50.471L23.9195 71.1454Z" fill="black"/>
<path d="M177.651 194.456L177.65 194.456C177.651 194.456 177.651 194.456 177.651 194.456ZM177.651 194.456L163.11 143.8L67.1995 10.9396C63.2368 5.45011 55.4365 4.116 49.777 7.95978L11.2473 34.1285C5.58786 37.9723 4.21245 45.5384 8.17522 51.0278L104.085 183.889L148.186 214.469L148.196 214.475M177.651 194.456L177.653 194.462L177.681 194.558C177.7 194.624 177.728 194.724 177.765 194.853C177.838 195.112 177.945 195.492 178.08 195.976C178.351 196.945 178.732 198.331 179.179 200.002C180.072 203.343 181.225 207.826 182.262 212.389C183.299 216.949 184.224 221.601 184.658 225.278C184.874 227.114 184.971 228.727 184.893 229.971C184.853 230.592 184.769 231.142 184.624 231.59C184.481 232.028 184.259 232.432 183.898 232.677C183.537 232.922 183.069 232.989 182.591 232.973C182.103 232.958 181.534 232.853 180.908 232.685C179.654 232.347 178.094 231.73 176.351 230.931C172.861 229.331 168.567 226.967 164.402 224.532C160.234 222.096 156.183 219.581 153.174 217.677C151.67 216.725 150.426 215.925 149.558 215.362C149.123 215.081 148.783 214.86 148.551 214.708C148.436 214.632 148.347 214.574 148.287 214.535L148.196 214.475M148.196 214.475C148.196 214.475 148.196 214.475 148.477 214.074L148.196 214.475ZM148.383 213.412L105.561 183.718C109.689 182.543 113.186 182.246 117.016 182.993C121.16 183.803 125.733 185.843 131.945 189.404L132.467 189.703L132.67 189.149C135.233 182.18 137.749 177.949 141.532 175.383C145.319 172.813 150.462 171.853 158.445 171.654L159.032 171.639L158.924 171.08C157.599 164.2 157.187 159.334 157.82 155.28C158.405 151.533 159.889 148.448 162.44 145.087L176.562 194.28C169.838 196.597 164.835 198.912 160.483 201.895C156.14 204.872 152.468 208.498 148.383 213.412ZM161.061 202.688C165.298 199.784 170.19 197.509 176.83 195.217C176.901 195.469 176.997 195.81 177.114 196.23C177.384 197.196 177.765 198.578 178.21 200.245C179.101 203.58 180.251 208.051 181.285 212.598C182.319 217.149 183.235 221.763 183.663 225.388C183.878 227.204 183.967 228.751 183.894 229.911C183.857 230.492 183.78 230.955 183.669 231.298C183.555 231.65 183.423 231.815 183.324 231.882C183.223 231.951 183.013 232.016 182.625 232.003C182.247 231.991 181.763 231.907 181.176 231.749C180.004 231.434 178.503 230.844 176.779 230.053C173.335 228.475 169.076 226.131 164.919 223.701C160.765 221.272 156.724 218.765 153.721 216.864C152.22 215.914 150.979 215.116 150.113 214.555C149.737 214.312 149.433 214.113 149.208 213.966C153.24 209.121 156.836 205.584 161.061 202.688ZM162.03 143.998C159.169 147.648 157.476 151.001 156.83 155.135C156.242 158.9 156.528 163.283 157.541 169.088L89.673 75.0729L104.839 64.7725L162.03 143.998ZM99.0987 56.8208L104.265 63.9773L46.8802 102.952L41.714 95.7955L99.0987 56.8208ZM104.646 182.972L47.4542 103.747L62.6201 93.4467L130.488 187.462C125.211 184.553 121.062 182.793 117.213 182.042C112.988 181.217 109.161 181.613 104.646 182.972ZM132.057 187.942L63.4399 92.8899L88.8532 75.6297L157.491 170.711C149.986 170.961 144.845 171.95 140.958 174.587C137.08 177.219 134.529 181.436 132.057 187.942ZM98.5247 56.0257L41.14 95.0003L36.2608 88.2414L93.6456 49.2667L98.5247 56.0257ZM93.0716 48.4716L35.6868 87.4463L30.5207 80.2898L87.9054 41.3151L93.0716 48.4716ZM87.3314 40.5199L29.9466 79.4946L24.4935 71.9405L81.8782 32.9658L87.3314 40.5199ZM81.3042 32.1707L23.9195 71.1454L8.995 50.471C5.34926 45.4207 6.61463 38.4599 11.8213 34.9237L50.3511 8.75494C55.5577 5.21868 62.734 6.44605 66.3797 11.4964L81.3042 32.1707Z" stroke="black"/>
</g>
</g>
<defs>
<filter id="filter0_f" x="0.384933" y="0.27713" width="190.061" height="238.186" filterUnits="userSpaceOnUse" color-interpolation-filters="sRGB">
<feFlood flood-opacity="0" result="BackgroundImageFix"/>
<feBlend mode="normal" in="SourceGraphic" in2="BackgroundImageFix" result="shape"/>
<feGaussianBlur stdDeviation="2" result="effect1_foregroundBlur"/>
</filter>
<linearGradient id="paint0_linear" x1="-122.422" y1="-189.118" x2="170.86" y2="240.973" gradientUnits="userSpaceOnUse">
<stop offset="0.911458" stop-color="#F4B921"/>
<stop offset="0.932589" stop-color="#8A6913" stop-opacity="0.16"/>
<stop offset="0.932689" stop-color="#352909"/>
</linearGradient>
<linearGradient id="paint1_linear" x1="30.7993" y1="21.4417" x2="177.032" y2="236.748" gradientUnits="userSpaceOnUse">
<stop offset="0.133105" stop-color="#FF2B2B"/>
<stop offset="0.155453" stop-color="white" stop-opacity="0"/>
</linearGradient>
<linearGradient id="paint2_linear" x1="30.7993" y1="21.4417" x2="177.032" y2="236.748" gradientUnits="userSpaceOnUse">
<stop offset="0.133105" stop-color="#B6B1B1" stop-opacity="0"/>
<stop offset="0.13442" stop-color="#B6B1B1" stop-opacity="0"/>
<stop offset="0.14888" stop-color="#B6B1B1" stop-opacity="0.239923"/>
<stop offset="0.171228" stop-color="#B6B1B1" stop-opacity="0.57444"/>
<stop offset="0.28691" stop-color="#B6B1B1"/>
<stop offset="0.311886" stop-color="white" stop-opacity="0"/>
</linearGradient>
<linearGradient id="paint3_linear" x1="-122.422" y1="-189.118" x2="170.86" y2="240.973" gradientUnits="userSpaceOnUse">
<stop offset="0.911458" stop-color="#F4B921"/>
<stop offset="0.932589" stop-color="#8A6913" stop-opacity="0.16"/>
<stop offset="0.932689" stop-color="#352909"/>
</linearGradient>
<linearGradient id="paint4_linear" x1="30.7993" y1="21.4417" x2="177.032" y2="236.748" gradientUnits="userSpaceOnUse">
<stop offset="0.133105" stop-color="#FF2B2B"/>
<stop offset="0.155453" stop-color="white" stop-opacity="0"/>
</linearGradient>
<linearGradient id="paint5_linear" x1="30.7993" y1="21.4417" x2="177.032" y2="236.748" gradientUnits="userSpaceOnUse">
<stop offset="0.133105" stop-color="#B6B1B1" stop-opacity="0"/>
<stop offset="0.13442" stop-color="#B6B1B1" stop-opacity="0"/>
<stop offset="0.14888" stop-color="#B6B1B1" stop-opacity="0.239923"/>
<stop offset="0.171228" stop-color="#B6B1B1" stop-opacity="0.57444"/>
<stop offset="0.28691" stop-color="#B6B1B1"/>
<stop offset="0.311886" stop-color="white" stop-opacity="0"/>
</linearGradient>
<linearGradient id="paint6_linear" x1="-122.422" y1="-189.118" x2="170.86" y2="240.973" gradientUnits="userSpaceOnUse">
<stop offset="0.911458" stop-color="#F4B921"/>
<stop offset="0.932589" stop-color="#8A6913" stop-opacity="0.16"/>
<stop offset="0.932689" stop-color="#352909"/>
</linearGradient>
<linearGradient id="paint7_linear" x1="30.7993" y1="21.4417" x2="177.032" y2="236.748" gradientUnits="userSpaceOnUse">
<stop offset="0.133105" stop-color="#FF2B2B"/>
<stop offset="0.155453" stop-color="white" stop-opacity="0"/>
</linearGradient>
<linearGradient id="paint8_linear" x1="30.7993" y1="21.4417" x2="177.032" y2="236.748" gradientUnits="userSpaceOnUse">
<stop offset="0.133105" stop-color="#B6B1B1" stop-opacity="0"/>
<stop offset="0.13442" stop-color="#B6B1B1" stop-opacity="0"/>
<stop offset="0.14888" stop-color="#B6B1B1" stop-opacity="0.239923"/>
<stop offset="0.171228" stop-color="#B6B1B1" stop-opacity="0.57444"/>
<stop offset="0.28691" stop-color="#B6B1B1"/>
<stop offset="0.311886" stop-color="white" stop-opacity="0"/>
</linearGradient>
<linearGradient id="paint9_linear" x1="-122.422" y1="-189.118" x2="170.86" y2="240.973" gradientUnits="userSpaceOnUse">
<stop offset="0.911458" stop-color="#F4B921"/>
<stop offset="0.932589" stop-color="#8A6913" stop-opacity="0.16"/>
<stop offset="0.932689" stop-color="#352909"/>
</linearGradient>
<linearGradient id="paint10_linear" x1="30.7993" y1="21.4417" x2="177.032" y2="236.748" gradientUnits="userSpaceOnUse">
<stop offset="0.133105" stop-color="#FF2B2B"/>
<stop offset="0.155453" stop-color="white" stop-opacity="0"/>
</linearGradient>
<linearGradient id="paint11_linear" x1="30.7993" y1="21.4417" x2="177.032" y2="236.748" gradientUnits="userSpaceOnUse">
<stop offset="0.133105" stop-color="#B6B1B1" stop-opacity="0"/>
<stop offset="0.13442" stop-color="#B6B1B1" stop-opacity="0"/>
<stop offset="0.14888" stop-color="#B6B1B1" stop-opacity="0.239923"/>
<stop offset="0.171228" stop-color="#B6B1B1" stop-opacity="0.57444"/>
<stop offset="0.28691" stop-color="#B6B1B1"/>
<stop offset="0.311886" stop-color="white" stop-opacity="0"/>
</linearGradient>
<linearGradient id="paint12_linear" x1="-122.422" y1="-189.118" x2="170.86" y2="240.973" gradientUnits="userSpaceOnUse">
<stop offset="0.911458" stop-color="#F4B921"/>
<stop offset="0.932589" stop-color="#8A6913" stop-opacity="0.16"/>
<stop offset="0.932689" stop-color="#352909"/>
</linearGradient>
<linearGradient id="paint13_linear" x1="30.7993" y1="21.4417" x2="177.032" y2="236.748" gradientUnits="userSpaceOnUse">
<stop offset="0.133105" stop-color="#FF2B2B"/>
<stop offset="0.155453" stop-color="white" stop-opacity="0"/>
</linearGradient>
<linearGradient id="paint14_linear" x1="30.7993" y1="21.4417" x2="177.032" y2="236.748" gradientUnits="userSpaceOnUse">
<stop offset="0.133105" stop-color="#B6B1B1" stop-opacity="0"/>
<stop offset="0.13442" stop-color="#B6B1B1" stop-opacity="0"/>
<stop offset="0.14888" stop-color="#B6B1B1" stop-opacity="0.239923"/>
<stop offset="0.171228" stop-color="#B6B1B1" stop-opacity="0.57444"/>
<stop offset="0.28691" stop-color="#B6B1B1"/>
<stop offset="0.311886" stop-color="white" stop-opacity="0"/>
</linearGradient>
<linearGradient id="paint15_linear" x1="-122.422" y1="-189.118" x2="170.86" y2="240.973" gradientUnits="userSpaceOnUse">
<stop offset="0.911458" stop-color="#F4B921"/>
<stop offset="0.932589" stop-color="#8A6913" stop-opacity="0.16"/>
<stop offset="0.932689" stop-color="#352909"/>
</linearGradient>
<linearGradient id="paint16_linear" x1="30.7993" y1="21.4417" x2="177.032" y2="236.748" gradientUnits="userSpaceOnUse">
<stop offset="0.133105" stop-color="#FF2B2B"/>
<stop offset="0.155453" stop-color="white" stop-opacity="0"/>
</linearGradient>
<linearGradient id="paint17_linear" x1="30.7993" y1="21.4417" x2="177.032" y2="236.748" gradientUnits="userSpaceOnUse">
<stop offset="0.133105" stop-color="#B6B1B1" stop-opacity="0"/>
<stop offset="0.13442" stop-color="#B6B1B1" stop-opacity="0"/>
<stop offset="0.14888" stop-color="#B6B1B1" stop-opacity="0.239923"/>
<stop offset="0.171228" stop-color="#B6B1B1" stop-opacity="0.57444"/>
<stop offset="0.28691" stop-color="#B6B1B1"/>
<stop offset="0.311886" stop-color="white" stop-opacity="0"/>
</linearGradient>
<linearGradient id="paint18_linear" x1="-122.422" y1="-189.118" x2="170.86" y2="240.973" gradientUnits="userSpaceOnUse">
<stop offset="0.911458" stop-color="#F4B921"/>
<stop offset="0.932589" stop-color="#8A6913" stop-opacity="0.16"/>
<stop offset="0.932689" stop-color="#352909"/>
</linearGradient>
<linearGradient id="paint19_linear" x1="30.7993" y1="21.4417" x2="177.032" y2="236.748" gradientUnits="userSpaceOnUse">
<stop offset="0.133105" stop-color="#FF2B2B"/>
<stop offset="0.155453" stop-color="white" stop-opacity="0"/>
</linearGradient>
<linearGradient id="paint20_linear" x1="30.7993" y1="21.4417" x2="177.032" y2="236.748" gradientUnits="userSpaceOnUse">
<stop offset="0.133105" stop-color="#B6B1B1" stop-opacity="0"/>
<stop offset="0.13442" stop-color="#B6B1B1" stop-opacity="0"/>
<stop offset="0.14888" stop-color="#B6B1B1" stop-opacity="0.239923"/>
<stop offset="0.171228" stop-color="#B6B1B1" stop-opacity="0.57444"/>
<stop offset="0.28691" stop-color="#B6B1B1"/>
<stop offset="0.311886" stop-color="white" stop-opacity="0"/>
</linearGradient>
<linearGradient id="paint21_linear" x1="-122.422" y1="-189.118" x2="170.86" y2="240.973" gradientUnits="userSpaceOnUse">
<stop offset="0.911458" stop-color="#F4B921"/>
<stop offset="0.932589" stop-color="#8A6913" stop-opacity="0.16"/>
<stop offset="0.932689" stop-color="#352909"/>
</linearGradient>
<linearGradient id="paint22_linear" x1="30.7993" y1="21.4417" x2="177.032" y2="236.748" gradientUnits="userSpaceOnUse">
<stop offset="0.133105" stop-color="#FF2B2B"/>
<stop offset="0.155453" stop-color="white" stop-opacity="0"/>
</linearGradient>
<linearGradient id="paint23_linear" x1="30.7993" y1="21.4417" x2="177.032" y2="236.748" gradientUnits="userSpaceOnUse">
<stop offset="0.133105" stop-color="#B6B1B1" stop-opacity="0"/>
<stop offset="0.13442" stop-color="#B6B1B1" stop-opacity="0"/>
<stop offset="0.14888" stop-color="#B6B1B1" stop-opacity="0.239923"/>
<stop offset="0.171228" stop-color="#B6B1B1" stop-opacity="0.57444"/>
<stop offset="0.28691" stop-color="#B6B1B1"/>
<stop offset="0.311886" stop-color="white" stop-opacity="0"/>
</linearGradient>
<linearGradient id="paint24_linear" x1="-122.422" y1="-189.118" x2="170.86" y2="240.973" gradientUnits="userSpaceOnUse">
<stop offset="0.911458" stop-color="#F4B921"/>
<stop offset="0.932589" stop-color="#8A6913" stop-opacity="0.16"/>
<stop offset="0.932689" stop-color="#352909"/>
</linearGradient>
<linearGradient id="paint25_linear" x1="30.7993" y1="21.4417" x2="177.032" y2="236.748" gradientUnits="userSpaceOnUse">
<stop offset="0.133105" stop-color="#FF2B2B"/>
<stop offset="0.155453" stop-color="white" stop-opacity="0"/>
</linearGradient>
<linearGradient id="paint26_linear" x1="30.7993" y1="21.4417" x2="177.032" y2="236.748" gradientUnits="userSpaceOnUse">
<stop offset="0.133105" stop-color="#B6B1B1" stop-opacity="0"/>
<stop offset="0.13442" stop-color="#B6B1B1" stop-opacity="0"/>
<stop offset="0.14888" stop-color="#B6B1B1" stop-opacity="0.239923"/>
<stop offset="0.171228" stop-color="#B6B1B1" stop-opacity="0.57444"/>
<stop offset="0.28691" stop-color="#B6B1B1"/>
<stop offset="0.311886" stop-color="white" stop-opacity="0"/>
</linearGradient>
<linearGradient id="paint27_linear" x1="-122.422" y1="-189.118" x2="170.86" y2="240.973" gradientUnits="userSpaceOnUse">
<stop offset="0.911458" stop-color="#F4B921"/>
<stop offset="0.932589" stop-color="#8A6913" stop-opacity="0.16"/>
<stop offset="0.932689" stop-color="#352909"/>
</linearGradient>
<linearGradient id="paint28_linear" x1="30.7993" y1="21.4417" x2="177.032" y2="236.748" gradientUnits="userSpaceOnUse">
<stop offset="0.133105" stop-color="#FF2B2B"/>
<stop offset="0.155453" stop-color="white" stop-opacity="0"/>
</linearGradient>
<linearGradient id="paint29_linear" x1="30.7993" y1="21.4417" x2="177.032" y2="236.748" gradientUnits="userSpaceOnUse">
<stop offset="0.133105" stop-color="#B6B1B1" stop-opacity="0"/>
<stop offset="0.13442" stop-color="#B6B1B1" stop-opacity="0"/>
<stop offset="0.14888" stop-color="#B6B1B1" stop-opacity="0.239923"/>
<stop offset="0.171228" stop-color="#B6B1B1" stop-opacity="0.57444"/>
<stop offset="0.28691" stop-color="#B6B1B1"/>
<stop offset="0.311886" stop-color="white" stop-opacity="0"/>
</linearGradient>
</defs>
</svg>
