<svg width="308" height="308" viewBox="0 0 308 308" fill="none" xmlns="http://www.w3.org/2000/svg">
<path d="M156.366 19.2229C71.8665 19.2229 21.8665 79.5912 21.8665 153.323C21.8665 227.054 82.6238 286.5 156.355 286.5C223.265 286.5 275.922 235.881 285.604 171.672H174V221.172H156.366L156.355 171.672V153.323H174H287.571H306.855C306.855 238.154 238.431 305.2 153.6 305.2C68.769 305.2 3.85542 236.431 3.85542 151.6C3.85542 66.7691 57.3554 0.500031 156.355 0.500031L174 0.500031V110H156.355L156.366 19.2229Z" fill="#6FCF97"/>
<path d="M46.3588 131.304C34.6568 191.505 73.9734 249.794 134.175 261.496C189.635 272.277 243.07 240.758 260.355 188.5L177.855 188.5L177.855 177L265.355 177L280.5 177C267.036 246.264 200.249 291.369 130.985 277.906C61.7212 264.442 16.486 197.378 29.9496 128.114C41.7321 67.4983 92.9214 25.3119 152.355 24.7399L152.355 41.4604C100.771 42.0403 56.5879 78.6796 46.3588 131.304Z" fill="#EB5757"/>
<path d="M71.6387 115.565C50.7785 161.339 70.9747 215.356 116.748 236.217C158.894 255.424 208.193 241.324 232 203L178.5 203L178.355 192L237 192L254.5 192C230.499 244.664 163.727 272.694 111.062 248.693C58.3981 224.693 35.1616 162.544 59.1621 109.879C76.5821 71.6546 112.775 48.955 152.175 48.5458L152.175 62.261C117.979 62.6665 86.7598 82.385 71.6387 115.565Z" fill="#4165C2"/>
</svg>
