<svg width="512" height="512" viewBox="0 0 512 512" fill="none" xmlns="http://www.w3.org/2000/svg">
<g filter="url(#filter0_f)">
<path d="M158 384.5L190.5 270.75H320.5L353 384.5M214.875 270.75L239.736 171.309C243.837 154.898 267.163 154.898 271.264 171.309L296.125 270.75M255.5 417C345.246 417 418 344.246 418 254.5C418 164.754 345.246 92 255.5 92C165.754 92 93 164.754 93 254.5C93 344.246 165.754 417 255.5 417Z" stroke="#BBBCF5" stroke-opacity="0.82" stroke-width="78" stroke-linecap="round" stroke-linejoin="round"/>
</g>
<path d="M161.8 379.6L193.2 269.7H318.8L350.2 379.6M216.75 269.7L240.769 173.625C244.732 157.769 267.268 157.769 271.231 173.625L295.25 269.7M256 411C342.708 411 413 340.708 413 254C413 167.291 342.708 97 256 97C169.291 97 99 167.291 99 254C99 340.708 169.291 411 256 411Z" stroke="#2329D6" stroke-width="31" stroke-linecap="round" stroke-linejoin="round"/>
<defs>
<filter id="filter0_f" x="-6" y="-7" width="523" height="523" filterUnits="userSpaceOnUse" color-interpolation-filters="sRGB">
<feFlood flood-opacity="0" result="BackgroundImageFix"/>
<feBlend mode="normal" in="SourceGraphic" in2="BackgroundImageFix" result="shape"/>
<feGaussianBlur stdDeviation="30" result="effect1_foregroundBlur"/>
</filter>
</defs>
</svg>
