<svg width="252" height="252" viewBox="0 0 252 252" fill="none" xmlns="http://www.w3.org/2000/svg">
<path d="M0 0H252V252H0V0Z" fill="white"/>
<g filter="url(#filter0_f)">
<path d="M90.9796 112.512L124.994 159.631C130.434 157.947 134.019 158.634 141.358 162.841L100.405 106.11L90.9796 112.512Z" fill="url(#paint0_linear)" style="mix-blend-mode:saturation"/>
<path d="M90.9796 112.512L124.994 159.631C130.434 157.947 134.019 158.634 141.358 162.841L100.405 106.11L90.9796 112.512Z" fill="url(#paint1_linear)"/>
<path d="M90.9796 112.512L124.994 159.631C130.434 157.947 134.019 158.634 141.358 162.841L100.405 106.11L90.9796 112.512Z" fill="url(#paint2_linear)"/>
<path d="M159.313 136.322L125.298 89.2031L115.873 95.6048L156.826 152.335C155.26 144.207 155.822 140.704 159.313 136.322Z" fill="url(#paint3_linear)" style="mix-blend-mode:saturation"/>
<path d="M159.313 136.322L125.298 89.2031L115.873 95.6048L156.826 152.335C155.26 144.207 155.822 140.704 159.313 136.322Z" fill="url(#paint4_linear)"/>
<path d="M159.313 136.322L125.298 89.2031L115.873 95.6048L156.826 152.335C155.26 144.207 155.822 140.704 159.313 136.322Z" fill="url(#paint5_linear)"/>
<path d="M141.358 162.841C144.389 154.599 147.394 152.57 156.826 152.335L115.873 95.6048L100.405 106.11L141.358 162.841Z" fill="url(#paint6_linear)" style="mix-blend-mode:saturation"/>
<path d="M141.358 162.841C144.389 154.599 147.394 152.57 156.826 152.335L115.873 95.6048L100.405 106.11L141.358 162.841Z" fill="url(#paint7_linear)"/>
<path d="M141.358 162.841C144.389 154.599 147.394 152.57 156.826 152.335L115.873 95.6048L100.405 106.11L141.358 162.841Z" fill="url(#paint8_linear)"/>
<path d="M156.826 152.335C147.394 152.57 144.389 154.599 141.358 162.841C134.019 158.634 130.434 157.947 124.994 159.631L150.956 177.633C155.894 171.646 159.71 168.925 167.874 166.143L159.313 136.322C155.822 140.704 155.26 144.207 156.826 152.335Z" fill="url(#paint9_linear)" style="mix-blend-mode:saturation"/>
<path d="M156.826 152.335C147.394 152.57 144.389 154.599 141.358 162.841C134.019 158.634 130.434 157.947 124.994 159.631L150.956 177.633C155.894 171.646 159.71 168.925 167.874 166.143L159.313 136.322C155.822 140.704 155.26 144.207 156.826 152.335Z" fill="url(#paint10_linear)"/>
<path d="M156.826 152.335C147.394 152.57 144.389 154.599 141.358 162.841C134.019 158.634 130.434 157.947 124.994 159.631L150.956 177.633C155.894 171.646 159.71 168.925 167.874 166.143L159.313 136.322C155.822 140.704 155.26 144.207 156.826 152.335Z" fill="url(#paint11_linear)"/>
<path d="M167.874 166.143C159.71 168.925 155.894 171.646 150.956 177.633C150.956 177.633 169.496 189.845 171.671 188.368C173.847 186.891 167.874 166.143 167.874 166.143Z" fill="url(#paint12_linear)" style="mix-blend-mode:saturation"/>
<path d="M167.874 166.143C159.71 168.925 155.894 171.646 150.956 177.633C150.956 177.633 169.496 189.845 171.671 188.368C173.847 186.891 167.874 166.143 167.874 166.143Z" fill="url(#paint13_linear)"/>
<path d="M167.874 166.143C159.71 168.925 155.894 171.646 150.956 177.633C150.956 177.633 169.496 189.845 171.671 188.368C173.847 186.891 167.874 166.143 167.874 166.143Z" fill="url(#paint14_linear)"/>
<path d="M121.914 84.5146L87.595 107.823L90.9796 112.512L100.405 106.11L115.873 95.6048L125.298 89.2031L121.914 84.5146Z" fill="url(#paint15_linear)" style="mix-blend-mode:saturation"/>
<path d="M121.914 84.5146L87.595 107.823L90.9796 112.512L100.405 106.11L115.873 95.6048L125.298 89.2031L121.914 84.5146Z" fill="url(#paint16_linear)"/>
<path d="M121.914 84.5146L87.595 107.823L90.9796 112.512L100.405 106.11L115.873 95.6048L125.298 89.2031L121.914 84.5146Z" fill="url(#paint17_linear)"/>
<path d="M118.698 80.0606L84.3797 103.369L87.595 107.823L121.914 84.5146L118.698 80.0606Z" fill="url(#paint18_linear)" style="mix-blend-mode:saturation"/>
<path d="M118.698 80.0606L84.3797 103.369L87.595 107.823L121.914 84.5146L118.698 80.0606Z" fill="url(#paint19_linear)"/>
<path d="M118.698 80.0606L84.3797 103.369L87.595 107.823L121.914 84.5146L118.698 80.0606Z" fill="url(#paint20_linear)"/>
<path d="M115.314 75.3721L80.9952 98.6808L84.3797 103.369L118.698 80.0606L115.314 75.3721Z" fill="url(#paint21_linear)" style="mix-blend-mode:saturation"/>
<path d="M115.314 75.3721L80.9952 98.6808L84.3797 103.369L118.698 80.0606L115.314 75.3721Z" fill="url(#paint22_linear)"/>
<path d="M115.314 75.3721L80.9952 98.6808L84.3797 103.369L118.698 80.0606L115.314 75.3721Z" fill="url(#paint23_linear)"/>
<path d="M111.76 70.4492L77.4414 93.7579L80.9952 98.6808L115.314 75.3721L111.76 70.4492Z" fill="url(#paint24_linear)" style="mix-blend-mode:saturation"/>
<path d="M111.76 70.4492L77.4414 93.7579L80.9952 98.6808L115.314 75.3721L111.76 70.4492Z" fill="url(#paint25_linear)"/>
<path d="M111.76 70.4492L77.4414 93.7579L80.9952 98.6808L115.314 75.3721L111.76 70.4492Z" fill="url(#paint26_linear)"/>
<path d="M92.9293 56.3381L70.2113 71.7677C67.0079 73.9434 66.2293 78.2261 68.4724 81.3334L77.4414 93.7579L111.76 70.4492L102.791 58.0247C100.548 54.9175 96.1328 54.1623 92.9293 56.3381Z" fill="url(#paint27_linear)" style="mix-blend-mode:saturation"/>
<path d="M92.9293 56.3381L70.2113 71.7677C67.0079 73.9434 66.2293 78.2261 68.4724 81.3334L77.4414 93.7579L111.76 70.4492L102.791 58.0247C100.548 54.9175 96.1328 54.1623 92.9293 56.3381Z" fill="url(#paint28_linear)"/>
<path d="M92.9293 56.3381L70.2113 71.7677C67.0079 73.9434 66.2293 78.2261 68.4724 81.3334L77.4414 93.7579L111.76 70.4492L102.791 58.0247C100.548 54.9175 96.1328 54.1623 92.9293 56.3381Z" fill="url(#paint29_linear)"/>
<path d="M67.6452 81.8952L76.6142 94.3197L80.1679 99.2426L83.5525 103.931L86.7678 108.385L90.1523 113.074L124.154 160.174C124.226 160.279 124.317 160.368 124.42 160.438L150.367 178.43C150.379 178.439 150.392 178.447 150.404 178.455L150.408 178.458L150.448 178.484L150.605 178.587C150.743 178.677 150.944 178.808 151.201 178.975C151.715 179.307 152.451 179.78 153.34 180.343C155.118 181.469 157.515 182.956 159.983 184.399C162.444 185.838 165.001 187.247 167.093 188.205C168.134 188.683 169.097 189.066 169.896 189.281C170.293 189.388 170.69 189.465 171.056 189.477C171.403 189.488 171.862 189.447 172.257 189.179C172.654 188.909 172.849 188.502 172.954 188.181C173.064 187.841 173.119 187.455 173.144 187.059C173.194 186.265 173.132 185.266 173.002 184.169C172.742 181.964 172.19 179.192 171.577 176.497C170.963 173.795 170.281 171.143 169.753 169.168C169.489 168.18 169.264 167.36 169.104 166.787C169.024 166.501 168.96 166.276 168.917 166.122L168.867 165.947L168.854 165.901L168.852 165.896C168.85 165.89 168.849 165.884 168.847 165.878L160.291 136.075C160.259 135.957 160.204 135.844 160.127 135.742L126.126 88.6413L122.741 83.9528L119.526 79.4987L116.141 74.8103L112.587 69.8874L103.618 57.4629C101.046 53.8999 95.9962 53.0468 92.344 55.5272L69.626 70.9569C65.9738 73.4374 65.0731 78.3322 67.6452 81.8952Z" stroke="black" stroke-width="2" stroke-linecap="round" stroke-linejoin="round"/>
</g>
<path fill-rule="evenodd" clip-rule="evenodd" d="M68.2307 81.4975C65.8941 78.2608 66.7051 73.7997 70.042 71.5333L92.76 56.1036C96.097 53.8373 100.696 54.6239 103.033 57.8606L159.584 136.198L168.158 166.066L168.157 166.066C168.158 166.066 168.158 166.066 168.158 166.066L168.159 166.07L168.175 166.126C168.186 166.165 168.203 166.224 168.224 166.3C168.268 166.453 168.331 166.677 168.411 166.962C168.57 167.533 168.795 168.351 169.058 169.336C169.585 171.306 170.264 173.949 170.876 176.64C171.488 179.328 172.033 182.072 172.289 184.239C172.416 185.322 172.474 186.273 172.427 187.006C172.404 187.373 172.354 187.697 172.269 187.961C172.185 188.22 172.054 188.457 171.841 188.602C171.628 188.747 171.352 188.786 171.07 188.777C170.783 188.767 170.447 188.706 170.078 188.606C169.339 188.407 168.418 188.044 167.391 187.572C165.333 186.629 162.802 185.235 160.346 183.8C157.888 182.363 155.499 180.881 153.725 179.758C152.838 179.196 152.105 178.724 151.593 178.393C151.337 178.227 151.136 178.096 151 178.007C150.931 177.962 150.879 177.928 150.844 177.905L150.79 177.87C150.79 177.87 150.79 177.87 150.956 177.633L150.79 177.87L150.784 177.866L124.781 159.835L68.2307 81.4975ZM150.9 177.243L125.651 159.735C128.086 159.042 130.147 158.866 132.405 159.307C134.849 159.785 137.545 160.988 141.208 163.087L141.516 163.264L141.636 162.937C143.147 158.828 144.631 156.333 146.861 154.82C149.094 153.305 152.126 152.739 156.833 152.621L157.179 152.613L157.116 152.283C156.334 148.226 156.091 145.357 156.465 142.967C156.81 140.758 157.685 138.939 159.189 136.957L167.515 165.962C163.551 167.328 160.601 168.694 158.035 170.452C155.474 172.208 153.309 174.346 150.9 177.243ZM167.673 166.515C163.758 167.866 160.874 169.207 158.375 170.92C155.884 172.627 153.764 174.713 151.387 177.57C151.519 177.656 151.699 177.773 151.921 177.917C152.431 178.247 153.163 178.718 154.048 179.278C155.818 180.399 158.201 181.877 160.65 183.309C163.101 184.742 165.613 186.124 167.643 187.055C168.66 187.521 169.545 187.869 170.236 188.055C170.582 188.148 170.867 188.197 171.09 188.205C171.319 188.212 171.443 188.174 171.502 188.133C171.561 188.094 171.638 187.996 171.706 187.789C171.771 187.587 171.817 187.314 171.838 186.971C171.881 186.287 171.829 185.375 171.702 184.304C171.45 182.167 170.91 179.446 170.3 176.763C169.69 174.082 169.013 171.446 168.487 169.48C168.224 168.497 168 167.681 167.841 167.112C167.772 166.864 167.715 166.663 167.673 166.515ZM158.947 136.315C157.26 138.467 156.262 140.444 155.881 142.881C155.534 145.101 155.703 147.686 156.3 151.109L116.284 95.6751L125.226 89.6017L158.947 136.315ZM124.887 89.1328L121.841 84.9132L88.0059 107.894L91.052 112.113L124.887 89.1328ZM91.3904 112.582L125.112 159.295C127.774 158.494 130.03 158.26 132.522 158.746C134.791 159.19 137.238 160.227 140.349 161.942L100.333 106.509L91.3904 112.582ZM100.816 106.18L141.274 162.225C142.732 158.389 144.236 155.902 146.522 154.351C148.814 152.796 151.845 152.213 156.27 152.065L115.8 96.0034L100.816 106.18ZM87.6674 107.425L121.503 84.4444L118.626 80.4592L84.7906 103.44L87.6674 107.425ZM84.4521 102.971L118.287 79.9903L115.241 75.7707L81.406 98.751L84.4521 102.971ZM81.0676 98.2822L114.903 75.3018L111.688 70.8478L77.8523 93.8281L81.0676 98.2822ZM77.5138 93.3593L111.349 70.3789L102.549 58.1889C100.4 55.2111 96.1685 54.4874 93.0985 56.5725L70.3805 72.0021C67.3105 74.0872 66.5644 78.1915 68.714 81.1692L77.5138 93.3593Z" fill="black"/>
<path d="M168.158 166.066L168.157 166.066C168.158 166.066 168.158 166.066 168.158 166.066ZM168.158 166.066L159.584 136.198L103.033 57.8606C100.696 54.6239 96.097 53.8373 92.76 56.1036L70.042 71.5333C66.7051 73.7997 65.8941 78.2608 68.2307 81.4975L124.781 159.835L150.784 177.866L150.79 177.87M168.158 166.066L168.159 166.07L168.175 166.126C168.186 166.165 168.203 166.224 168.224 166.3C168.268 166.453 168.331 166.677 168.411 166.962C168.57 167.533 168.795 168.351 169.058 169.336C169.585 171.306 170.264 173.949 170.876 176.64C171.488 179.328 172.033 182.072 172.289 184.239C172.416 185.322 172.474 186.273 172.427 187.006C172.404 187.373 172.354 187.697 172.269 187.961C172.185 188.22 172.054 188.457 171.841 188.602C171.628 188.747 171.352 188.786 171.07 188.777C170.783 188.767 170.447 188.706 170.078 188.606C169.339 188.407 168.418 188.044 167.391 187.572C165.333 186.629 162.802 185.235 160.346 183.8C157.888 182.363 155.499 180.881 153.725 179.758C152.838 179.196 152.105 178.724 151.593 178.393C151.337 178.227 151.136 178.096 151 178.007C150.931 177.962 150.879 177.928 150.844 177.905L150.79 177.87M150.79 177.87C150.79 177.87 150.79 177.87 150.956 177.633L150.79 177.87ZM150.9 177.243L125.651 159.735C128.086 159.042 130.147 158.866 132.405 159.307C134.849 159.785 137.545 160.988 141.208 163.087L141.516 163.264L141.636 162.937C143.147 158.828 144.631 156.333 146.861 154.82C149.094 153.305 152.126 152.739 156.833 152.621L157.179 152.613L157.116 152.283C156.334 148.226 156.091 145.357 156.465 142.967C156.81 140.758 157.685 138.939 159.189 136.957L167.515 165.962C163.551 167.328 160.601 168.694 158.035 170.452C155.474 172.208 153.309 174.346 150.9 177.243ZM158.375 170.92C160.874 169.207 163.758 167.866 167.673 166.515C167.715 166.663 167.772 166.864 167.841 167.112C168 167.681 168.224 168.497 168.487 169.48C169.013 171.446 169.69 174.082 170.3 176.763C170.91 179.446 171.45 182.167 171.702 184.304C171.829 185.375 171.881 186.287 171.838 186.971C171.817 187.314 171.771 187.587 171.706 187.789C171.638 187.996 171.561 188.094 171.502 188.133C171.443 188.174 171.319 188.212 171.09 188.205C170.867 188.197 170.582 188.148 170.236 188.055C169.545 187.869 168.66 187.521 167.643 187.055C165.613 186.124 163.101 184.742 160.65 183.309C158.201 181.877 155.818 180.399 154.048 179.278C153.163 178.718 152.431 178.247 151.921 177.917C151.699 177.773 151.519 177.656 151.387 177.57C153.764 174.713 155.884 172.627 158.375 170.92ZM158.947 136.315C157.26 138.467 156.262 140.444 155.881 142.881C155.534 145.101 155.703 147.686 156.3 151.109L116.284 95.6751L125.226 89.6017L158.947 136.315ZM121.841 84.9132L124.887 89.1328L91.052 112.113L88.0059 107.894L121.841 84.9132ZM125.112 159.295L91.3904 112.582L100.333 106.509L140.349 161.942C137.238 160.227 134.791 159.19 132.522 158.746C130.03 158.26 127.774 158.494 125.112 159.295ZM141.274 162.225L100.816 106.18L115.8 96.0034L156.27 152.065C151.845 152.213 148.814 152.796 146.522 154.351C144.236 155.902 142.732 158.389 141.274 162.225ZM121.503 84.4444L87.6674 107.425L84.7906 103.44L118.626 80.4592L121.503 84.4444ZM118.287 79.9903L84.4521 102.971L81.406 98.751L115.241 75.7707L118.287 79.9903ZM114.903 75.3018L81.0676 98.2822L77.8523 93.8281L111.688 70.8478L114.903 75.3018ZM111.349 70.3789L77.5138 93.3593L68.714 81.1692C66.5644 78.1915 67.3105 74.0872 70.3805 72.0021L93.0985 56.5725C96.1685 54.4874 100.4 55.2111 102.549 58.1889L111.349 70.3789Z" stroke="black"/>
<path d="M0 0V-1H-1V0H0ZM252 0H253V-1H252V0ZM252 252V253H253V252H252ZM0 252H-1V253H0V252ZM0 1H252V-1H0V1ZM251 0V252H253V0H251ZM252 251H0V253H252V251ZM1 252V0H-1V252H1Z" fill="black"/>
<defs>
<filter id="filter0_f" x="61.1638" y="49.1228" width="117.011" height="145.342" filterUnits="userSpaceOnUse" color-interpolation-filters="sRGB">
<feFlood flood-opacity="0" result="BackgroundImageFix"/>
<feBlend mode="normal" in="SourceGraphic" in2="BackgroundImageFix" result="shape"/>
<feGaussianBlur stdDeviation="2" result="effect1_foregroundBlur"/>
</filter>
<linearGradient id="paint0_linear" x1="-8.77254" y1="-60.0979" x2="164.154" y2="193.494" gradientUnits="userSpaceOnUse">
<stop offset="0.911458" stop-color="#F4B921"/>
<stop offset="0.932589" stop-color="#8A6913" stop-opacity="0.16"/>
<stop offset="0.932689" stop-color="#352909"/>
</linearGradient>
<linearGradient id="paint1_linear" x1="81.5703" y1="64.0529" x2="167.792" y2="191.003" gradientUnits="userSpaceOnUse">
<stop offset="0.133105" stop-color="#FF2B2B"/>
<stop offset="0.155453" stop-color="white" stop-opacity="0"/>
</linearGradient>
<linearGradient id="paint2_linear" x1="81.5703" y1="64.0529" x2="167.792" y2="191.003" gradientUnits="userSpaceOnUse">
<stop offset="0.133105" stop-color="#B6B1B1" stop-opacity="0"/>
<stop offset="0.13442" stop-color="#B6B1B1" stop-opacity="0"/>
<stop offset="0.14888" stop-color="#B6B1B1" stop-opacity="0.239923"/>
<stop offset="0.171228" stop-color="#B6B1B1" stop-opacity="0.57444"/>
<stop offset="0.28691" stop-color="#B6B1B1"/>
<stop offset="0.311886" stop-color="white" stop-opacity="0"/>
</linearGradient>
<linearGradient id="paint3_linear" x1="-8.77254" y1="-60.0979" x2="164.154" y2="193.494" gradientUnits="userSpaceOnUse">
<stop offset="0.911458" stop-color="#F4B921"/>
<stop offset="0.932589" stop-color="#8A6913" stop-opacity="0.16"/>
<stop offset="0.932689" stop-color="#352909"/>
</linearGradient>
<linearGradient id="paint4_linear" x1="81.5703" y1="64.0529" x2="167.792" y2="191.003" gradientUnits="userSpaceOnUse">
<stop offset="0.133105" stop-color="#FF2B2B"/>
<stop offset="0.155453" stop-color="white" stop-opacity="0"/>
</linearGradient>
<linearGradient id="paint5_linear" x1="81.5703" y1="64.0529" x2="167.792" y2="191.003" gradientUnits="userSpaceOnUse">
<stop offset="0.133105" stop-color="#B6B1B1" stop-opacity="0"/>
<stop offset="0.13442" stop-color="#B6B1B1" stop-opacity="0"/>
<stop offset="0.14888" stop-color="#B6B1B1" stop-opacity="0.239923"/>
<stop offset="0.171228" stop-color="#B6B1B1" stop-opacity="0.57444"/>
<stop offset="0.28691" stop-color="#B6B1B1"/>
<stop offset="0.311886" stop-color="white" stop-opacity="0"/>
</linearGradient>
<linearGradient id="paint6_linear" x1="-8.77254" y1="-60.0979" x2="164.154" y2="193.494" gradientUnits="userSpaceOnUse">
<stop offset="0.911458" stop-color="#F4B921"/>
<stop offset="0.932589" stop-color="#8A6913" stop-opacity="0.16"/>
<stop offset="0.932689" stop-color="#352909"/>
</linearGradient>
<linearGradient id="paint7_linear" x1="81.5703" y1="64.0529" x2="167.792" y2="191.003" gradientUnits="userSpaceOnUse">
<stop offset="0.133105" stop-color="#FF2B2B"/>
<stop offset="0.155453" stop-color="white" stop-opacity="0"/>
</linearGradient>
<linearGradient id="paint8_linear" x1="81.5703" y1="64.0529" x2="167.792" y2="191.003" gradientUnits="userSpaceOnUse">
<stop offset="0.133105" stop-color="#B6B1B1" stop-opacity="0"/>
<stop offset="0.13442" stop-color="#B6B1B1" stop-opacity="0"/>
<stop offset="0.14888" stop-color="#B6B1B1" stop-opacity="0.239923"/>
<stop offset="0.171228" stop-color="#B6B1B1" stop-opacity="0.57444"/>
<stop offset="0.28691" stop-color="#B6B1B1"/>
<stop offset="0.311886" stop-color="white" stop-opacity="0"/>
</linearGradient>
<linearGradient id="paint9_linear" x1="-8.77254" y1="-60.0979" x2="164.154" y2="193.494" gradientUnits="userSpaceOnUse">
<stop offset="0.911458" stop-color="#F4B921"/>
<stop offset="0.932589" stop-color="#8A6913" stop-opacity="0.16"/>
<stop offset="0.932689" stop-color="#352909"/>
</linearGradient>
<linearGradient id="paint10_linear" x1="81.5703" y1="64.0529" x2="167.792" y2="191.003" gradientUnits="userSpaceOnUse">
<stop offset="0.133105" stop-color="#FF2B2B"/>
<stop offset="0.155453" stop-color="white" stop-opacity="0"/>
</linearGradient>
<linearGradient id="paint11_linear" x1="81.5703" y1="64.0529" x2="167.792" y2="191.003" gradientUnits="userSpaceOnUse">
<stop offset="0.133105" stop-color="#B6B1B1" stop-opacity="0"/>
<stop offset="0.13442" stop-color="#B6B1B1" stop-opacity="0"/>
<stop offset="0.14888" stop-color="#B6B1B1" stop-opacity="0.239923"/>
<stop offset="0.171228" stop-color="#B6B1B1" stop-opacity="0.57444"/>
<stop offset="0.28691" stop-color="#B6B1B1"/>
<stop offset="0.311886" stop-color="white" stop-opacity="0"/>
</linearGradient>
<linearGradient id="paint12_linear" x1="-8.77254" y1="-60.0979" x2="164.154" y2="193.494" gradientUnits="userSpaceOnUse">
<stop offset="0.911458" stop-color="#F4B921"/>
<stop offset="0.932589" stop-color="#8A6913" stop-opacity="0.16"/>
<stop offset="0.932689" stop-color="#352909"/>
</linearGradient>
<linearGradient id="paint13_linear" x1="81.5703" y1="64.0529" x2="167.792" y2="191.003" gradientUnits="userSpaceOnUse">
<stop offset="0.133105" stop-color="#FF2B2B"/>
<stop offset="0.155453" stop-color="white" stop-opacity="0"/>
</linearGradient>
<linearGradient id="paint14_linear" x1="81.5703" y1="64.0529" x2="167.792" y2="191.003" gradientUnits="userSpaceOnUse">
<stop offset="0.133105" stop-color="#B6B1B1" stop-opacity="0"/>
<stop offset="0.13442" stop-color="#B6B1B1" stop-opacity="0"/>
<stop offset="0.14888" stop-color="#B6B1B1" stop-opacity="0.239923"/>
<stop offset="0.171228" stop-color="#B6B1B1" stop-opacity="0.57444"/>
<stop offset="0.28691" stop-color="#B6B1B1"/>
<stop offset="0.311886" stop-color="white" stop-opacity="0"/>
</linearGradient>
<linearGradient id="paint15_linear" x1="-8.77254" y1="-60.0979" x2="164.154" y2="193.494" gradientUnits="userSpaceOnUse">
<stop offset="0.911458" stop-color="#F4B921"/>
<stop offset="0.932589" stop-color="#8A6913" stop-opacity="0.16"/>
<stop offset="0.932689" stop-color="#352909"/>
</linearGradient>
<linearGradient id="paint16_linear" x1="81.5703" y1="64.0529" x2="167.792" y2="191.003" gradientUnits="userSpaceOnUse">
<stop offset="0.133105" stop-color="#FF2B2B"/>
<stop offset="0.155453" stop-color="white" stop-opacity="0"/>
</linearGradient>
<linearGradient id="paint17_linear" x1="81.5703" y1="64.0529" x2="167.792" y2="191.003" gradientUnits="userSpaceOnUse">
<stop offset="0.133105" stop-color="#B6B1B1" stop-opacity="0"/>
<stop offset="0.13442" stop-color="#B6B1B1" stop-opacity="0"/>
<stop offset="0.14888" stop-color="#B6B1B1" stop-opacity="0.239923"/>
<stop offset="0.171228" stop-color="#B6B1B1" stop-opacity="0.57444"/>
<stop offset="0.28691" stop-color="#B6B1B1"/>
<stop offset="0.311886" stop-color="white" stop-opacity="0"/>
</linearGradient>
<linearGradient id="paint18_linear" x1="-8.77254" y1="-60.0979" x2="164.154" y2="193.494" gradientUnits="userSpaceOnUse">
<stop offset="0.911458" stop-color="#F4B921"/>
<stop offset="0.932589" stop-color="#8A6913" stop-opacity="0.16"/>
<stop offset="0.932689" stop-color="#352909"/>
</linearGradient>
<linearGradient id="paint19_linear" x1="81.5703" y1="64.0529" x2="167.792" y2="191.003" gradientUnits="userSpaceOnUse">
<stop offset="0.133105" stop-color="#FF2B2B"/>
<stop offset="0.155453" stop-color="white" stop-opacity="0"/>
</linearGradient>
<linearGradient id="paint20_linear" x1="81.5703" y1="64.0529" x2="167.792" y2="191.003" gradientUnits="userSpaceOnUse">
<stop offset="0.133105" stop-color="#B6B1B1" stop-opacity="0"/>
<stop offset="0.13442" stop-color="#B6B1B1" stop-opacity="0"/>
<stop offset="0.14888" stop-color="#B6B1B1" stop-opacity="0.239923"/>
<stop offset="0.171228" stop-color="#B6B1B1" stop-opacity="0.57444"/>
<stop offset="0.28691" stop-color="#B6B1B1"/>
<stop offset="0.311886" stop-color="white" stop-opacity="0"/>
</linearGradient>
<linearGradient id="paint21_linear" x1="-8.77254" y1="-60.0979" x2="164.154" y2="193.494" gradientUnits="userSpaceOnUse">
<stop offset="0.911458" stop-color="#F4B921"/>
<stop offset="0.932589" stop-color="#8A6913" stop-opacity="0.16"/>
<stop offset="0.932689" stop-color="#352909"/>
</linearGradient>
<linearGradient id="paint22_linear" x1="81.5703" y1="64.0529" x2="167.792" y2="191.003" gradientUnits="userSpaceOnUse">
<stop offset="0.133105" stop-color="#FF2B2B"/>
<stop offset="0.155453" stop-color="white" stop-opacity="0"/>
</linearGradient>
<linearGradient id="paint23_linear" x1="81.5703" y1="64.0529" x2="167.792" y2="191.003" gradientUnits="userSpaceOnUse">
<stop offset="0.133105" stop-color="#B6B1B1" stop-opacity="0"/>
<stop offset="0.13442" stop-color="#B6B1B1" stop-opacity="0"/>
<stop offset="0.14888" stop-color="#B6B1B1" stop-opacity="0.239923"/>
<stop offset="0.171228" stop-color="#B6B1B1" stop-opacity="0.57444"/>
<stop offset="0.28691" stop-color="#B6B1B1"/>
<stop offset="0.311886" stop-color="white" stop-opacity="0"/>
</linearGradient>
<linearGradient id="paint24_linear" x1="-8.77254" y1="-60.0979" x2="164.154" y2="193.494" gradientUnits="userSpaceOnUse">
<stop offset="0.911458" stop-color="#F4B921"/>
<stop offset="0.932589" stop-color="#8A6913" stop-opacity="0.16"/>
<stop offset="0.932689" stop-color="#352909"/>
</linearGradient>
<linearGradient id="paint25_linear" x1="81.5703" y1="64.0529" x2="167.792" y2="191.003" gradientUnits="userSpaceOnUse">
<stop offset="0.133105" stop-color="#FF2B2B"/>
<stop offset="0.155453" stop-color="white" stop-opacity="0"/>
</linearGradient>
<linearGradient id="paint26_linear" x1="81.5703" y1="64.0529" x2="167.792" y2="191.003" gradientUnits="userSpaceOnUse">
<stop offset="0.133105" stop-color="#B6B1B1" stop-opacity="0"/>
<stop offset="0.13442" stop-color="#B6B1B1" stop-opacity="0"/>
<stop offset="0.14888" stop-color="#B6B1B1" stop-opacity="0.239923"/>
<stop offset="0.171228" stop-color="#B6B1B1" stop-opacity="0.57444"/>
<stop offset="0.28691" stop-color="#B6B1B1"/>
<stop offset="0.311886" stop-color="white" stop-opacity="0"/>
</linearGradient>
<linearGradient id="paint27_linear" x1="-8.77254" y1="-60.0979" x2="164.154" y2="193.494" gradientUnits="userSpaceOnUse">
<stop offset="0.911458" stop-color="#F4B921"/>
<stop offset="0.932589" stop-color="#8A6913" stop-opacity="0.16"/>
<stop offset="0.932689" stop-color="#352909"/>
</linearGradient>
<linearGradient id="paint28_linear" x1="81.5703" y1="64.0529" x2="167.792" y2="191.003" gradientUnits="userSpaceOnUse">
<stop offset="0.133105" stop-color="#FF2B2B"/>
<stop offset="0.155453" stop-color="white" stop-opacity="0"/>
</linearGradient>
<linearGradient id="paint29_linear" x1="81.5703" y1="64.0529" x2="167.792" y2="191.003" gradientUnits="userSpaceOnUse">
<stop offset="0.133105" stop-color="#B6B1B1" stop-opacity="0"/>
<stop offset="0.13442" stop-color="#B6B1B1" stop-opacity="0"/>
<stop offset="0.14888" stop-color="#B6B1B1" stop-opacity="0.239923"/>
<stop offset="0.171228" stop-color="#B6B1B1" stop-opacity="0.57444"/>
<stop offset="0.28691" stop-color="#B6B1B1"/>
<stop offset="0.311886" stop-color="white" stop-opacity="0"/>
</linearGradient>
</defs>
</svg>
