<svg width="304" height="304" viewBox="0 0 304 304" fill="none" xmlns="http://www.w3.org/2000/svg">

<style>

path
{
fill: black;
  animation: color 3s steps(1) forwards;
}

@keyframes color {
  90% {
    fill: teal;
  }
}
</style>
<g filter="url(#filter0_d)">
<path fill-rule="evenodd" clip-rule="evenodd" d="M98.033 22.3241C112.365 44.356 122.399 62.9841 126.827 78.7298C129.316 87.5799 130.123 95.8182 128.723 103.401C127.306 111.079 123.684 117.752 117.879 123.455C106.553 134.582 87.0669 141.862 59.6978 147.119C46.6871 149.618 31.6824 151.694 14.5882 153.465C15.3164 173.917 20.5248 193.218 29.2598 210.425C44.1525 194.283 58.1492 180.836 71.5873 170.089C106.264 142.354 137.688 132.271 171.284 140.726C202.811 148.66 235.255 172.731 273.575 210.75C282.406 193.468 287.674 174.064 288.411 153.493C270.149 151.711 254.016 149.632 239.97 147.133C210.684 141.921 189.508 134.737 177.27 123.729C170.978 118.069 166.987 111.346 165.573 103.48C164.179 95.7199 165.379 87.3273 168.583 78.367C174.213 62.6215 186.437 44.0419 204.283 22.0362C188.044 15.25 170.216 11.5 151.5 11.5C132.521 11.5 114.455 15.3562 98.033 22.3241ZM214.558 26.8416C198.904 45.9502 188.051 61.7587 181.924 74.8741C206.41 75.8024 222.134 80.9376 231.904 91.8201C241.742 102.777 244.431 118.5 246.061 137.021C258.469 139.094 272.551 140.874 288.368 142.436C286.175 92.0918 256.813 48.7888 214.558 26.8416ZM234.818 134.969C233.147 118.034 230.516 106.739 223.719 99.1687C216.591 91.2288 203.704 86.2591 177.745 85.7599C175.967 91.9124 175.604 97.1044 176.4 101.535C177.331 106.718 179.93 111.326 184.627 115.551C193.555 123.582 209.756 129.969 234.818 134.969ZM267.963 220.686C252.333 205.058 237.955 192.015 224.471 181.523C211.654 202.332 199.519 218.443 187.632 229.583C174.93 241.486 162.015 248.169 148.472 248.192C134.921 248.215 122.035 241.569 109.402 229.662C97.8033 218.731 86.0044 202.989 73.5914 182.672C61.4447 192.888 48.6516 205.472 34.9313 220.515C59.0866 259.529 102.263 285.5 151.5 285.5C200.665 285.5 243.787 259.605 267.963 220.686ZM82.2367 175.719C94.6904 196.247 106.133 211.467 116.946 221.657C128.461 232.51 138.77 237.208 148.453 237.192C158.145 237.175 168.504 232.433 180.11 221.557C191.137 211.223 202.842 195.761 215.622 174.914C198.867 162.944 183.442 155.129 168.599 151.393C140.593 144.345 113.667 151.63 82.2367 175.719ZM14.6333 142.401C28.9101 140.901 41.5861 139.193 52.755 137.214C51.2164 116.446 53.2338 100.403 63.6571 89.7292C73.7127 79.4319 90.3171 75.4953 113.984 74.8252C109.136 61.7304 100.388 46.0196 87.9975 27.0735C45.9913 49.0877 16.8305 92.2483 14.6333 142.401ZM117.249 85.7562C92.198 86.1737 78.7061 90.0629 71.5271 97.4145C64.7821 104.322 62.3424 115.643 63.6352 135.098C87.1896 130.065 102.004 123.631 110.17 115.608C114.447 111.405 116.92 106.744 117.906 101.404C118.731 96.9388 118.554 91.7785 117.249 85.7562ZM87.5179 15.0083C106.889 5.70748 128.594 0.5 151.5 0.5C174.406 0.5 196.111 5.70748 215.482 15.0083C265.174 38.867 299.5 89.6695 299.5 148.5C299.5 175.488 292.271 200.804 279.641 222.6C254.046 266.77 206.248 296.5 151.5 296.5C96.752 296.5 48.9542 266.77 23.3589 222.6C10.7286 200.804 3.5 175.488 3.5 148.5C3.5 89.6695 37.826 38.867 87.5179 15.0083Z"/>
</g>
<defs>
<filter id="filter0_d" x="0.5" y="0.5" width="302" height="303" filterUnits="userSpaceOnUse" color-interpolation-filters="sRGB">
<feFlood flood-opacity="0" result="BackgroundImageFix"/>
<feColorMatrix in="SourceAlpha" type="matrix" values="0 0 0 0 0 0 0 0 0 0 0 0 0 0 0 0 0 0 127 0"/>
<feOffset dy="4"/>
<feGaussianBlur stdDeviation="1.5"/>
<feColorMatrix type="matrix" values="0 0 0 0 0 0 0 0 0 0 0 0 0 0 0 0 0 0 0.25 0"/>
<feBlend mode="normal" in2="BackgroundImageFix" result="effect1_dropShadow"/>
<feBlend mode="normal" in="SourceGraphic" in2="effect1_dropShadow" result="shape"/>
</filter>
</defs>
</svg>
